<?xml version="1.0" encoding="UTF-8"?>
<svg xmlns="http://www.w3.org/2000/svg" xmlns:xlink="http://www.w3.org/1999/xlink" viewBox="0 0 50 50" width="50px" height="50px">
<g id="surface7171572">
<path style="fill-rule:nonzero;fill:rgb(0%,0%,0%);fill-opacity:1;stroke-width:1;stroke-linecap:butt;stroke-linejoin:round;stroke:rgb(80.000001%,80.000001%,80.000001%);stroke-opacity:1;stroke-miterlimit:10;" d="M 130.719565 68.804325 C 130.719565 83.282758 125.339158 96.558034 116.525023 106.805141 L 161.379776 151.659894 L 151.659894 161.379776 L 106.386065 116.119465 C 96.760813 123.108587 84.972584 127.285838 72.238052 127.285838 C 40.090794 127.285838 13.756539 100.951583 13.756539 68.804325 C 13.756539 36.657067 40.090794 10.322812 72.238052 10.322812 C 104.38531 10.322812 130.719565 36.657067 130.719565 68.804325 Z M 20.637512 68.804325 C 20.637512 97.193409 43.848968 120.404865 72.238052 120.404865 C 100.640655 120.404865 123.838592 97.193409 123.838592 68.804325 C 123.838592 40.401722 100.640655 17.203785 72.238052 17.203785 C 43.848968 17.203785 20.637512 40.401722 20.637512 68.804325 Z M 20.637512 68.804325 " transform="matrix(0.288953,0,0,0.288953,0.15,0.15)"/>
<path style=" stroke:none;fill-rule:nonzero;fill:rgb(80.000001%,80.000001%,80.000001%);fill-opacity:1;" d="M 21.023438 3.132812 C 11.734375 3.132812 4.125 10.742188 4.125 20.03125 C 4.125 29.320312 11.734375 36.929688 21.023438 36.929688 C 24.703125 36.929688 28.109375 35.722656 30.890625 33.703125 L 43.972656 46.78125 L 46.78125 43.972656 L 33.820312 31.011719 C 36.367188 28.050781 37.921875 24.214844 37.921875 20.03125 C 37.921875 10.742188 30.3125 3.132812 21.023438 3.132812 Z M 21.023438 5.121094 C 29.230469 5.121094 35.933594 11.824219 35.933594 20.03125 C 35.933594 28.234375 29.230469 34.941406 21.023438 34.941406 C 12.820312 34.941406 6.113281 28.234375 6.113281 20.03125 C 6.113281 11.824219 12.820312 5.121094 21.023438 5.121094 Z M 21.023438 5.121094 "/>
</g>
</svg>
